<svg width="104" height="104" viewBox="0 0 104 104" fill="none" xmlns="http://www.w3.org/2000/svg">
<g clip-path="url(#clip0_412_111)">
<path opacity="0.45" d="M66.0267 76.833H37.0656L20.1675 12.6401C19.4016 9.72221 21.4241 6.82827 24.2245 6.82827H58.9061L51.5581 30.2549L66.0148 76.845L66.0267 76.833Z" fill="#89C9A6"/>
<path opacity="0.45" d="M37.1852 76.833H66.1464L83.0444 12.6401C83.8103 9.72221 81.7878 6.82827 78.9875 6.82827H58.9181L51.6539 30.2549L37.1972 76.845L37.1852 76.833Z" fill="#89C9A6"/>
<path opacity="0.45" d="M50.9956 32.0845L37.0656 76.8331L20.1795 12.6401C19.4136 9.72221 21.4361 6.82827 24.2365 6.82827H40.9909C42.9655 6.82827 44.7247 8.19153 45.359 10.2245L50.9956 28.4133C51.3666 29.6091 51.3666 30.9006 50.9956 32.0965V32.0845Z" fill="#89C9A6"/>
<path opacity="0.45" d="M82.9128 12.6401L66.0267 76.8331L52.1326 32.0845C51.7616 30.8887 51.7616 29.5972 52.1326 28.4013L57.8051 10.2125C58.4394 8.19153 60.1866 6.82827 62.1732 6.82827H78.8558C81.6562 6.82827 83.6787 9.72221 82.9128 12.6401Z" fill="#89C9A6"/>
<path opacity="0.45" d="M69.0904 76.8331H34.0498C33.4035 76.8331 32.9727 76.1156 33.236 75.4818L51.594 30.2429L69.9161 75.4818C70.1794 76.1156 69.7366 76.8331 69.1024 76.8331H69.0904Z" fill="#89C9A6"/>
<path opacity="0.45" d="M69.7845 81.2697H33.3557C32.9847 81.2697 32.6855 80.9468 32.6855 80.5402V79.4161C32.6855 79.4161 32.6855 79.1052 32.877 78.9019C32.9966 78.7703 33.1642 78.6866 33.3557 78.6866H69.7845C70.1555 78.6866 70.4547 79.0095 70.4547 79.4161V80.5402C70.4547 80.9468 70.1555 81.2697 69.7845 81.2697Z" fill="#89C9A6"/>
<path opacity="0.45" d="M69.9281 103.68H33.4993C33.1283 103.68 32.8291 103.453 32.8291 103.166C33.7027 100.786 34.5883 97.4375 34.5883 93.4075C34.5883 89.3775 33.7027 86.0291 32.8291 83.6494C32.8291 83.6135 32.8291 83.4341 33.0206 83.2906C33.1402 83.1949 33.3078 83.1351 33.4993 83.1351H69.9281C70.2991 83.1351 70.5983 83.3624 70.5983 83.6494C69.7247 86.0291 68.8391 89.3775 68.8391 93.4075C68.8391 97.4375 69.7247 100.786 70.5983 103.166C70.5983 103.201 70.5983 103.381 69.9281 103.68Z" fill="#89C9A6"/>
<path opacity="0.45" d="M35.1268 0H70.4427V0.119585C70.4427 1.48285 69.3417 2.58303 67.9774 2.58303H32.6615V2.46344C32.6615 1.10018 33.7625 0 35.1268 0Z" fill="#89C9A6"/>
</g>
<defs>
<clipPath id="clip0_412_111">
<rect width="63.2" height="104" fill="white" transform="translate(20)"/>
</clipPath>
</defs>
</svg>
