<svg width="130" height="130" viewBox="0 0 130 130" fill="none" xmlns="http://www.w3.org/2000/svg">
<rect width="130" height="130" fill="white"/>
<g clip-path="url(#clip0_412_111)">
<path opacity="0.45" d="M77.5984 86.2738H53.3113L39.1405 32.5739C38.4982 30.133 40.1943 27.7121 42.5427 27.7121H71.627L65.4649 47.3094L77.5883 86.2838L77.5984 86.2738Z" fill="#89C9A6"/>
<path opacity="0.45" d="M53.4117 86.2738H77.6987L91.8695 32.5739C92.5118 30.133 90.8158 27.7121 88.4673 27.7121H71.637L65.5452 47.3094L53.4217 86.2838L53.4117 86.2738Z" fill="#89C9A6"/>
<path opacity="0.45" d="M64.9932 48.8399L53.3113 86.2738L39.1505 32.5739C38.5082 30.133 40.2043 27.7121 42.5527 27.7121H56.6031C58.259 27.7121 59.7343 28.8525 60.2662 30.5532L64.9932 45.7688C65.3043 46.7692 65.3043 47.8496 64.9932 48.8499V48.8399Z" fill="#89C9A6"/>
<path opacity="0.45" d="M91.7591 32.5739L77.5984 86.2738L65.9466 48.8399C65.6355 47.8396 65.6355 46.7592 65.9466 45.7588L70.7037 30.5432C71.2356 28.8525 72.7008 27.7121 74.3668 27.7121H88.3569C90.7054 27.7121 92.4014 30.133 91.7591 32.5739Z" fill="#89C9A6"/>
<path opacity="0.45" d="M80.1676 86.2738H50.7822C50.2403 86.2738 49.879 85.6736 50.0998 85.1434L65.495 47.2994L80.8601 85.1434C81.0809 85.6736 80.7095 86.2738 80.1776 86.2738H80.1676Z" fill="#89C9A6"/>
<path opacity="0.45" d="M80.7497 89.9852H50.2002C49.889 89.9852 49.6381 89.7151 49.6381 89.375V88.4346C49.6381 88.4346 49.6381 88.1745 49.7987 88.0045C49.8991 87.8944 50.0396 87.8244 50.2002 87.8244H80.7497C81.0608 87.8244 81.3117 88.0945 81.3117 88.4346V89.375C81.3117 89.7151 81.0608 89.9852 80.7497 89.9852Z" fill="#89C9A6"/>
<path opacity="0.45" d="M80.8701 108.732H50.3206C50.0095 108.732 49.7586 108.542 49.7586 108.302C50.4912 106.311 51.2339 103.51 51.2339 100.139C51.2339 96.7677 50.4912 93.9667 49.7586 91.9759C49.7586 91.9459 49.7586 91.7959 49.9191 91.6758C50.0195 91.5958 50.16 91.5458 50.3206 91.5458H80.8701C81.1812 91.5458 81.4321 91.7358 81.4321 91.9759C80.6995 93.9667 79.9568 96.7677 79.9568 100.139C79.9568 103.51 80.6995 106.311 81.4321 108.302C81.4321 108.332 81.4321 108.482 80.8701 108.732Z" fill="#89C9A6"/>
<path opacity="0.45" d="M51.6855 22H81.3017V22.1C81.3017 23.2405 80.3783 24.1608 79.2342 24.1608H49.6181V24.0608C49.6181 22.9203 50.5414 22 51.6855 22Z" fill="#89C9A6"/>
</g>
<defs>
<clipPath id="clip0_412_111">
<rect width="53" height="108" fill="white" transform="translate(39 22)"/>
</clipPath>
</defs>
</svg>
